<mxfile host="app.diagrams.net" modified="2020-09-09T15:36:36.112Z" agent="5.0 (Macintosh; Intel Mac OS X 10_15_5) AppleWebKit/537.36 (KHTML, like Gecko) Chrome/85.0.4183.102 Safari/537.36" etag="ZpJp-sE4wNVt4_H_IY-O" version="13.6.9" type="github">
  <diagram id="R2lEEEUBdFMjLlhIrx00" name="Page-1">
    <mxGraphModel dx="1113" dy="722" grid="1" gridSize="10" guides="1" tooltips="1" connect="1" arrows="1" fold="1" page="1" pageScale="1" pageWidth="850" pageHeight="1100" math="0" shadow="0" extFonts="Permanent Marker^https://fonts.googleapis.com/css?family=Permanent+Marker">
      <root>
        <mxCell id="0" />
        <mxCell id="1" parent="0" />
        <mxCell id="B6y-D5gSoSHr-RNbPVT_-36" value="email VARCHAR NOT NULL" style="shape=partialRectangle;overflow=hidden;connectable=0;fillColor=none;top=0;left=0;bottom=0;right=0;align=left;spacingLeft=6;" parent="1" vertex="1">
          <mxGeometry x="50.00000000000023" y="200" width="220" height="30" as="geometry" />
        </mxCell>
        <mxCell id="B6y-D5gSoSHr-RNbPVT_-37" value="hashed_password VARCHAR NOT NULL" style="shape=partialRectangle;overflow=hidden;connectable=0;fillColor=none;top=0;left=0;bottom=0;right=0;align=left;spacingLeft=6;" parent="1" vertex="1">
          <mxGeometry x="50" y="220" width="270" height="30" as="geometry" />
        </mxCell>
        <mxCell id="B6y-D5gSoSHr-RNbPVT_-39" value="" style="shape=partialRectangle;collapsible=0;dropTarget=0;pointerEvents=0;fillColor=none;points=[[0,0.5],[1,0.5]];portConstraint=eastwest;top=0;left=0;right=0;bottom=0;" parent="1" vertex="1">
          <mxGeometry x="20" y="180" width="250.00000000000023" height="30" as="geometry" />
        </mxCell>
        <mxCell id="B6y-D5gSoSHr-RNbPVT_-40" value="" style="shape=partialRectangle;overflow=hidden;connectable=0;fillColor=none;top=0;left=0;bottom=0;right=0;" parent="B6y-D5gSoSHr-RNbPVT_-39" vertex="1">
          <mxGeometry width="30.000000000000227" height="30" as="geometry" />
        </mxCell>
        <mxCell id="B6y-D5gSoSHr-RNbPVT_-41" value="last_name VARCHAR NOT NULL" style="shape=partialRectangle;overflow=hidden;connectable=0;fillColor=none;top=0;left=0;bottom=0;right=0;align=left;spacingLeft=6;" parent="B6y-D5gSoSHr-RNbPVT_-39" vertex="1">
          <mxGeometry x="30.000000000000227" width="220" height="30" as="geometry" />
        </mxCell>
        <mxCell id="B6y-D5gSoSHr-RNbPVT_-42" value="profile_photo BYTEA" style="shape=partialRectangle;overflow=hidden;connectable=0;fillColor=none;top=0;left=0;bottom=0;right=0;align=left;spacingLeft=6;" parent="1" vertex="1">
          <mxGeometry x="50" y="230" width="230" height="50" as="geometry" />
        </mxCell>
        <mxCell id="B6y-D5gSoSHr-RNbPVT_-71" value="" style="shape=partialRectangle;overflow=hidden;connectable=0;fillColor=none;top=0;left=0;bottom=0;right=0;align=left;spacingLeft=6;" parent="1" vertex="1">
          <mxGeometry x="650.0000000000002" y="90" width="289.9999999999998" height="30" as="geometry" />
        </mxCell>
        <mxCell id="B6y-D5gSoSHr-RNbPVT_-77" value="project_description VARCHAR NOT NULL" style="shape=partialRectangle;overflow=hidden;connectable=0;fillColor=none;top=0;left=0;bottom=0;right=0;align=left;spacingLeft=6;" parent="1" vertex="1">
          <mxGeometry x="1430" y="180" width="240" height="30" as="geometry" />
        </mxCell>
        <mxCell id="B6y-D5gSoSHr-RNbPVT_-79" value="is_private BOOLEAN NOT NULL" style="shape=partialRectangle;overflow=hidden;connectable=0;fillColor=none;top=0;left=0;bottom=0;right=0;align=left;spacingLeft=6;" parent="1" vertex="1">
          <mxGeometry x="1430" y="200" width="240" height="30" as="geometry" />
        </mxCell>
        <mxCell id="B6y-D5gSoSHr-RNbPVT_-88" value="" style="shape=partialRectangle;collapsible=0;dropTarget=0;pointerEvents=0;fillColor=none;points=[[0,0.5],[1,0.5]];portConstraint=eastwest;top=0;left=0;right=0;bottom=0;" parent="1" vertex="1">
          <mxGeometry x="680" y="135" width="280" height="30" as="geometry" />
        </mxCell>
        <mxCell id="B6y-D5gSoSHr-RNbPVT_-89" value="FK" style="shape=partialRectangle;overflow=hidden;connectable=0;fillColor=none;top=0;left=0;bottom=0;right=0;" parent="B6y-D5gSoSHr-RNbPVT_-88" vertex="1">
          <mxGeometry width="30" height="30" as="geometry" />
        </mxCell>
        <mxCell id="B6y-D5gSoSHr-RNbPVT_-90" value="project uuid NOT NULL" style="shape=partialRectangle;overflow=hidden;connectable=0;fillColor=none;top=0;left=0;bottom=0;right=0;align=left;spacingLeft=6;" parent="B6y-D5gSoSHr-RNbPVT_-88" vertex="1">
          <mxGeometry x="30" width="250" height="30" as="geometry" />
        </mxCell>
        <mxCell id="B6y-D5gSoSHr-RNbPVT_-93" value="" style="fontSize=12;html=1;endArrow=ERmany;exitX=1;exitY=0.5;exitDx=0;exitDy=0;entryX=0;entryY=0.5;entryDx=0;entryDy=0;" parent="1" source="C-vyLk0tnHw3VtMMgP7b-24" target="B6y-D5gSoSHr-RNbPVT_-61" edge="1">
          <mxGeometry width="100" height="100" relative="1" as="geometry">
            <mxPoint x="720" y="250" as="sourcePoint" />
            <mxPoint x="820" y="150" as="targetPoint" />
          </mxGeometry>
        </mxCell>
        <mxCell id="B6y-D5gSoSHr-RNbPVT_-111" value="" style="edgeStyle=orthogonalEdgeStyle;fontSize=12;html=1;endArrow=ERmany;endFill=0;exitX=0;exitY=0.5;exitDx=0;exitDy=0;entryX=1;entryY=0.5;entryDx=0;entryDy=0;" parent="1" source="B6y-D5gSoSHr-RNbPVT_-51" target="B6y-D5gSoSHr-RNbPVT_-85" edge="1">
          <mxGeometry width="100" height="100" relative="1" as="geometry">
            <mxPoint x="920" y="740" as="sourcePoint" />
            <mxPoint x="1020" y="640" as="targetPoint" />
          </mxGeometry>
        </mxCell>
        <mxCell id="B6y-D5gSoSHr-RNbPVT_-43" value="Projects" style="shape=table;startSize=30;container=1;collapsible=1;childLayout=tableLayout;fixedRows=1;rowLines=0;fontStyle=1;align=center;resizeLast=1;" parent="1" vertex="1">
          <mxGeometry x="1400" y="100" width="270" height="200" as="geometry" />
        </mxCell>
        <mxCell id="B6y-D5gSoSHr-RNbPVT_-44" value="" style="shape=partialRectangle;collapsible=0;dropTarget=0;pointerEvents=0;fillColor=none;points=[[0,0.5],[1,0.5]];portConstraint=eastwest;top=0;left=0;right=0;bottom=1;" parent="B6y-D5gSoSHr-RNbPVT_-43" vertex="1">
          <mxGeometry y="30" width="270" height="30" as="geometry" />
        </mxCell>
        <mxCell id="B6y-D5gSoSHr-RNbPVT_-45" value="PK" style="shape=partialRectangle;overflow=hidden;connectable=0;fillColor=none;top=0;left=0;bottom=0;right=0;fontStyle=1;" parent="B6y-D5gSoSHr-RNbPVT_-44" vertex="1">
          <mxGeometry width="30.000000000000227" height="30" as="geometry" />
        </mxCell>
        <mxCell id="B6y-D5gSoSHr-RNbPVT_-46" value="project_id uuid NOT NULL" style="shape=partialRectangle;overflow=hidden;connectable=0;fillColor=none;top=0;left=0;bottom=0;right=0;align=left;spacingLeft=6;fontStyle=5;" parent="B6y-D5gSoSHr-RNbPVT_-44" vertex="1">
          <mxGeometry x="30.000000000000227" width="239.99999999999977" height="30" as="geometry" />
        </mxCell>
        <mxCell id="B6y-D5gSoSHr-RNbPVT_-47" value="" style="shape=partialRectangle;collapsible=0;dropTarget=0;pointerEvents=0;fillColor=none;points=[[0,0.5],[1,0.5]];portConstraint=eastwest;top=0;left=0;right=0;bottom=0;" parent="B6y-D5gSoSHr-RNbPVT_-43" vertex="1">
          <mxGeometry y="60" width="270" height="30" as="geometry" />
        </mxCell>
        <mxCell id="B6y-D5gSoSHr-RNbPVT_-48" value="" style="shape=partialRectangle;overflow=hidden;connectable=0;fillColor=none;top=0;left=0;bottom=0;right=0;" parent="B6y-D5gSoSHr-RNbPVT_-47" vertex="1">
          <mxGeometry width="30.000000000000227" height="30" as="geometry" />
        </mxCell>
        <mxCell id="B6y-D5gSoSHr-RNbPVT_-49" value="project_name VARCHAR NOT NULL" style="shape=partialRectangle;overflow=hidden;connectable=0;fillColor=none;top=0;left=0;bottom=0;right=0;align=left;spacingLeft=6;" parent="B6y-D5gSoSHr-RNbPVT_-47" vertex="1">
          <mxGeometry x="30.000000000000227" width="239.99999999999977" height="30" as="geometry" />
        </mxCell>
        <mxCell id="B6y-D5gSoSHr-RNbPVT_-139" value="ticket_title VARCHAR NOT NULL" style="shape=partialRectangle;overflow=hidden;connectable=0;fillColor=none;top=0;left=0;bottom=0;right=0;align=left;spacingLeft=6;" parent="1" vertex="1">
          <mxGeometry x="770" y="560" width="180" height="30" as="geometry" />
        </mxCell>
        <mxCell id="B6y-D5gSoSHr-RNbPVT_-140" value="ticket_description VARCHAR" style="shape=partialRectangle;overflow=hidden;connectable=0;fillColor=none;top=0;left=0;bottom=0;right=0;align=left;spacingLeft=6;" parent="1" vertex="1">
          <mxGeometry x="770" y="580" width="180" height="30" as="geometry" />
        </mxCell>
        <mxCell id="B6y-D5gSoSHr-RNbPVT_-141" value="notifyees ARRAY" style="shape=partialRectangle;overflow=hidden;connectable=0;fillColor=none;top=0;left=0;bottom=0;right=0;align=left;spacingLeft=6;" parent="1" vertex="1">
          <mxGeometry x="770" y="600" width="180" height="30" as="geometry" />
        </mxCell>
        <mxCell id="B6y-D5gSoSHr-RNbPVT_-142" value="FK" style="shape=partialRectangle;overflow=hidden;connectable=0;fillColor=none;top=0;left=0;bottom=0;right=0;" parent="1" vertex="1">
          <mxGeometry x="740" y="365" width="30.000000000000227" height="30" as="geometry" />
        </mxCell>
        <mxCell id="B6y-D5gSoSHr-RNbPVT_-143" value="label uuid NOT NULL" style="shape=partialRectangle;overflow=hidden;connectable=0;fillColor=none;top=0;left=0;bottom=0;right=0;align=left;spacingLeft=6;" parent="1" vertex="1">
          <mxGeometry x="770" y="365" width="180" height="30" as="geometry" />
        </mxCell>
        <mxCell id="B6y-D5gSoSHr-RNbPVT_-144" value="" style="fontSize=12;html=1;endArrow=none;startArrow=ERmany;startFill=0;endFill=0;entryX=0;entryY=0.5;entryDx=0;entryDy=0;edgeStyle=orthogonalEdgeStyle;" parent="1" target="B6y-D5gSoSHr-RNbPVT_-129" edge="1">
          <mxGeometry width="100" height="100" relative="1" as="geometry">
            <mxPoint x="950" y="380" as="sourcePoint" />
            <mxPoint x="710" y="575" as="targetPoint" />
            <Array as="points">
              <mxPoint x="1020" y="380" />
              <mxPoint x="1020" y="330" />
            </Array>
          </mxGeometry>
        </mxCell>
        <mxCell id="B6y-D5gSoSHr-RNbPVT_-146" value="user uuid NOT NULL" style="shape=partialRectangle;overflow=hidden;connectable=0;fillColor=none;top=0;left=0;bottom=0;right=0;align=left;spacingLeft=6;" parent="1" vertex="1">
          <mxGeometry x="770" y="620" width="180" height="30" as="geometry" />
        </mxCell>
        <mxCell id="B6y-D5gSoSHr-RNbPVT_-147" value="FK" style="shape=partialRectangle;overflow=hidden;connectable=0;fillColor=none;top=0;left=0;bottom=0;right=0;" parent="1" vertex="1">
          <mxGeometry x="740" y="620" width="30.000000000000227" height="30" as="geometry" />
        </mxCell>
        <mxCell id="B6y-D5gSoSHr-RNbPVT_-148" value="user uuid NOT NULL" style="shape=partialRectangle;overflow=hidden;connectable=0;fillColor=none;top=0;left=0;bottom=0;right=0;align=left;spacingLeft=6;" parent="1" vertex="1">
          <mxGeometry x="1430" y="220" width="240" height="30" as="geometry" />
        </mxCell>
        <mxCell id="B6y-D5gSoSHr-RNbPVT_-149" value="FK" style="shape=partialRectangle;overflow=hidden;connectable=0;fillColor=none;top=0;left=0;bottom=0;right=0;" parent="1" vertex="1">
          <mxGeometry x="1400" y="220" width="30.000000000000227" height="30" as="geometry" />
        </mxCell>
        <mxCell id="B6y-D5gSoSHr-RNbPVT_-150" value="role INT NOT NULL" style="shape=partialRectangle;overflow=hidden;connectable=0;fillColor=none;top=0;left=0;bottom=0;right=0;align=left;spacingLeft=6;" parent="1" vertex="1">
          <mxGeometry x="50" y="260" width="230" height="30" as="geometry" />
        </mxCell>
        <mxCell id="B6y-D5gSoSHr-RNbPVT_-179" value="FK" style="shape=partialRectangle;overflow=hidden;connectable=0;fillColor=none;top=0;left=0;bottom=0;right=0;" parent="1" vertex="1">
          <mxGeometry x="710" y="870" width="30.000000000000227" height="30" as="geometry" />
        </mxCell>
        <mxCell id="B6y-D5gSoSHr-RNbPVT_-180" value="project uuid" style="shape=partialRectangle;overflow=hidden;connectable=0;fillColor=none;top=0;left=0;bottom=0;right=0;align=left;spacingLeft=6;" parent="1" vertex="1">
          <mxGeometry x="740.0000000000002" y="870" width="259.9999999999998" height="30" as="geometry" />
        </mxCell>
        <mxCell id="B6y-D5gSoSHr-RNbPVT_-181" value="FK" style="shape=partialRectangle;overflow=hidden;connectable=0;fillColor=none;top=0;left=0;bottom=0;right=0;" parent="1" vertex="1">
          <mxGeometry x="710" y="890" width="30.000000000000227" height="30" as="geometry" />
        </mxCell>
        <mxCell id="B6y-D5gSoSHr-RNbPVT_-182" value="ticket uuid" style="shape=partialRectangle;overflow=hidden;connectable=0;fillColor=none;top=0;left=0;bottom=0;right=0;align=left;spacingLeft=6;" parent="1" vertex="1">
          <mxGeometry x="740.0000000000002" y="890" width="259.9999999999998" height="30" as="geometry" />
        </mxCell>
        <mxCell id="B6y-D5gSoSHr-RNbPVT_-183" value="FK" style="shape=partialRectangle;overflow=hidden;connectable=0;fillColor=none;top=0;left=0;bottom=0;right=0;" parent="1" vertex="1">
          <mxGeometry x="710" y="910" width="30.000000000000227" height="30" as="geometry" />
        </mxCell>
        <mxCell id="B6y-D5gSoSHr-RNbPVT_-184" value="column uuid" style="shape=partialRectangle;overflow=hidden;connectable=0;fillColor=none;top=0;left=0;bottom=0;right=0;align=left;spacingLeft=6;" parent="1" vertex="1">
          <mxGeometry x="740.0000000000002" y="910" width="259.9999999999998" height="30" as="geometry" />
        </mxCell>
        <mxCell id="B6y-D5gSoSHr-RNbPVT_-187" value="FK" style="shape=partialRectangle;overflow=hidden;connectable=0;fillColor=none;top=0;left=0;bottom=0;right=0;" parent="1" vertex="1">
          <mxGeometry x="710" y="930" width="30.000000000000227" height="30" as="geometry" />
        </mxCell>
        <mxCell id="B6y-D5gSoSHr-RNbPVT_-188" value="label uuid" style="shape=partialRectangle;overflow=hidden;connectable=0;fillColor=none;top=0;left=0;bottom=0;right=0;align=left;spacingLeft=6;" parent="1" vertex="1">
          <mxGeometry x="740.0000000000002" y="930" width="259.9999999999998" height="30" as="geometry" />
        </mxCell>
        <mxCell id="B6y-D5gSoSHr-RNbPVT_-189" value="action_type int NOT NULL" style="shape=partialRectangle;overflow=hidden;connectable=0;fillColor=none;top=0;left=0;bottom=0;right=0;align=left;spacingLeft=6;" parent="1" vertex="1">
          <mxGeometry x="740.0000000000002" y="970" width="259.9999999999998" height="30" as="geometry" />
        </mxCell>
        <mxCell id="B6y-D5gSoSHr-RNbPVT_-190" value="created_time Date NOT NULL" style="shape=partialRectangle;overflow=hidden;connectable=0;fillColor=none;top=0;left=0;bottom=0;right=0;align=left;spacingLeft=6;" parent="1" vertex="1">
          <mxGeometry x="740.0000000000002" y="990" width="259.9999999999998" height="30" as="geometry" />
        </mxCell>
        <mxCell id="B6y-D5gSoSHr-RNbPVT_-192" value="created_time Date NOT NULL" style="shape=partialRectangle;overflow=hidden;connectable=0;fillColor=none;top=0;left=0;bottom=0;right=0;align=left;spacingLeft=6;" parent="1" vertex="1">
          <mxGeometry x="770" y="640" width="180" height="30" as="geometry" />
        </mxCell>
        <mxCell id="B6y-D5gSoSHr-RNbPVT_-193" value="modified_time Date NOT NULL" style="shape=partialRectangle;overflow=hidden;connectable=0;fillColor=none;top=0;left=0;bottom=0;right=0;align=left;spacingLeft=6;" parent="1" vertex="1">
          <mxGeometry x="770" y="660" width="180" height="30" as="geometry" />
        </mxCell>
        <mxCell id="B6y-D5gSoSHr-RNbPVT_-194" value="FK" style="shape=partialRectangle;overflow=hidden;connectable=0;fillColor=none;top=0;left=0;bottom=0;right=0;" parent="1" vertex="1">
          <mxGeometry x="710" y="950" width="30.000000000000227" height="30" as="geometry" />
        </mxCell>
        <mxCell id="B6y-D5gSoSHr-RNbPVT_-195" value="comment uuid" style="shape=partialRectangle;overflow=hidden;connectable=0;fillColor=none;top=0;left=0;bottom=0;right=0;align=left;spacingLeft=6;" parent="1" vertex="1">
          <mxGeometry x="740.0000000000002" y="950" width="259.9999999999998" height="30" as="geometry" />
        </mxCell>
        <mxCell id="B6y-D5gSoSHr-RNbPVT_-196" value="FK" style="shape=partialRectangle;overflow=hidden;connectable=0;fillColor=none;top=0;left=0;bottom=0;right=0;" parent="1" vertex="1">
          <mxGeometry x="370" y="480" width="30.000000000000227" height="30" as="geometry" />
        </mxCell>
        <mxCell id="B6y-D5gSoSHr-RNbPVT_-197" value="user uuid NOT NULL" style="shape=partialRectangle;overflow=hidden;connectable=0;fillColor=none;top=0;left=0;bottom=0;right=0;align=left;spacingLeft=6;" parent="1" vertex="1">
          <mxGeometry x="400.0000000000002" y="480" width="259.9999999999998" height="30" as="geometry" />
        </mxCell>
        <mxCell id="B6y-D5gSoSHr-RNbPVT_-198" value="message VARCHAR NOT NULL" style="shape=partialRectangle;overflow=hidden;connectable=0;fillColor=none;top=0;left=0;bottom=0;right=0;align=left;spacingLeft=6;" parent="1" vertex="1">
          <mxGeometry x="400.0000000000002" y="500" width="259.9999999999998" height="30" as="geometry" />
        </mxCell>
        <mxCell id="B6y-D5gSoSHr-RNbPVT_-199" value="created_time Date NOT NULL" style="shape=partialRectangle;overflow=hidden;connectable=0;fillColor=none;top=0;left=0;bottom=0;right=0;align=left;spacingLeft=6;" parent="1" vertex="1">
          <mxGeometry x="400.0000000000002" y="520" width="259.9999999999998" height="30" as="geometry" />
        </mxCell>
        <mxCell id="B6y-D5gSoSHr-RNbPVT_-200" value="modified_time Date NOT NULL" style="shape=partialRectangle;overflow=hidden;connectable=0;fillColor=none;top=0;left=0;bottom=0;right=0;align=left;spacingLeft=6;" parent="1" vertex="1">
          <mxGeometry x="400.0000000000002" y="540" width="259.9999999999998" height="30" as="geometry" />
        </mxCell>
        <mxCell id="B6y-D5gSoSHr-RNbPVT_-222" value="created_time Date NOT NULL" style="shape=partialRectangle;overflow=hidden;connectable=0;fillColor=none;top=0;left=0;bottom=0;right=0;align=left;spacingLeft=6;" parent="1" vertex="1">
          <mxGeometry x="1430.0000000000002" y="240" width="259.9999999999998" height="30" as="geometry" />
        </mxCell>
        <mxCell id="B6y-D5gSoSHr-RNbPVT_-223" value="modified_time Date NOT NULL" style="shape=partialRectangle;overflow=hidden;connectable=0;fillColor=none;top=0;left=0;bottom=0;right=0;align=left;spacingLeft=6;" parent="1" vertex="1">
          <mxGeometry x="1430.0000000000002" y="260" width="259.9999999999998" height="30" as="geometry" />
        </mxCell>
        <mxCell id="B6y-D5gSoSHr-RNbPVT_-224" value="file_name VARCHAR NOT NULL" style="shape=partialRectangle;overflow=hidden;connectable=0;fillColor=none;top=0;left=0;bottom=0;right=0;align=left;spacingLeft=6;" parent="1" vertex="1">
          <mxGeometry x="1390.0000000000002" y="880" width="259.9999999999998" height="30" as="geometry" />
        </mxCell>
        <mxCell id="B6y-D5gSoSHr-RNbPVT_-225" value="uploaded_date Date" style="shape=partialRectangle;overflow=hidden;connectable=0;fillColor=none;top=0;left=0;bottom=0;right=0;align=left;spacingLeft=6;" parent="1" vertex="1">
          <mxGeometry x="1390.0000000000002" y="980" width="259.9999999999998" height="30" as="geometry" />
        </mxCell>
        <mxCell id="B6y-D5gSoSHr-RNbPVT_-226" value="file_extension VARCHAR NOT NULL" style="shape=partialRectangle;overflow=hidden;connectable=0;fillColor=none;top=0;left=0;bottom=0;right=0;align=left;spacingLeft=6;" parent="1" vertex="1">
          <mxGeometry x="1390.0000000000002" y="900" width="259.9999999999998" height="30" as="geometry" />
        </mxCell>
        <mxCell id="PhbG-IJdiTOJx_OGz-Nv-1" value="file_contents BYTEA NOT NULL" style="shape=partialRectangle;overflow=hidden;connectable=0;fillColor=none;top=0;left=0;bottom=0;right=0;align=left;spacingLeft=6;" parent="1" vertex="1">
          <mxGeometry x="1390.0000000000002" y="920" width="259.9999999999998" height="30" as="geometry" />
        </mxCell>
        <mxCell id="PhbG-IJdiTOJx_OGz-Nv-2" value="uploaded_by VARCHAR NOT NULL" style="shape=partialRectangle;overflow=hidden;connectable=0;fillColor=none;top=0;left=0;bottom=0;right=0;align=left;spacingLeft=6;" parent="1" vertex="1">
          <mxGeometry x="1390.0000000000002" y="940" width="259.9999999999998" height="30" as="geometry" />
        </mxCell>
        <mxCell id="PhbG-IJdiTOJx_OGz-Nv-3" value="inserted_at INT" style="shape=partialRectangle;overflow=hidden;connectable=0;fillColor=none;top=0;left=0;bottom=0;right=0;align=left;spacingLeft=6;" parent="1" vertex="1">
          <mxGeometry x="1390.0000000000002" y="960" width="259.9999999999998" height="30" as="geometry" />
        </mxCell>
        <mxCell id="B6y-D5gSoSHr-RNbPVT_-57" value="User-Project" style="shape=table;startSize=30;container=1;collapsible=1;childLayout=tableLayout;fixedRows=1;rowLines=0;fontStyle=1;align=center;resizeLast=1;" parent="1" vertex="1">
          <mxGeometry x="680" y="50" width="220" height="120" as="geometry" />
        </mxCell>
        <mxCell id="B6y-D5gSoSHr-RNbPVT_-58" value="" style="shape=partialRectangle;collapsible=0;dropTarget=0;pointerEvents=0;fillColor=none;points=[[0,0.5],[1,0.5]];portConstraint=eastwest;top=0;left=0;right=0;bottom=1;" parent="B6y-D5gSoSHr-RNbPVT_-57" vertex="1">
          <mxGeometry y="30" width="220" height="30" as="geometry" />
        </mxCell>
        <mxCell id="B6y-D5gSoSHr-RNbPVT_-59" value="PK" style="shape=partialRectangle;overflow=hidden;connectable=0;fillColor=none;top=0;left=0;bottom=0;right=0;fontStyle=1;" parent="B6y-D5gSoSHr-RNbPVT_-58" vertex="1">
          <mxGeometry width="30" height="30" as="geometry" />
        </mxCell>
        <mxCell id="B6y-D5gSoSHr-RNbPVT_-60" value="user_project_id uuid NOT NULL" style="shape=partialRectangle;overflow=hidden;connectable=0;fillColor=none;top=0;left=0;bottom=0;right=0;align=left;spacingLeft=6;fontStyle=5;" parent="B6y-D5gSoSHr-RNbPVT_-58" vertex="1">
          <mxGeometry x="30" width="190" height="30" as="geometry" />
        </mxCell>
        <mxCell id="B6y-D5gSoSHr-RNbPVT_-61" value="" style="shape=partialRectangle;collapsible=0;dropTarget=0;pointerEvents=0;fillColor=none;points=[[0,0.5],[1,0.5]];portConstraint=eastwest;top=0;left=0;right=0;bottom=0;" parent="B6y-D5gSoSHr-RNbPVT_-57" vertex="1">
          <mxGeometry y="60" width="220" height="30" as="geometry" />
        </mxCell>
        <mxCell id="B6y-D5gSoSHr-RNbPVT_-62" value="FK" style="shape=partialRectangle;overflow=hidden;connectable=0;fillColor=none;top=0;left=0;bottom=0;right=0;" parent="B6y-D5gSoSHr-RNbPVT_-61" vertex="1">
          <mxGeometry width="30" height="30" as="geometry" />
        </mxCell>
        <mxCell id="B6y-D5gSoSHr-RNbPVT_-63" value="user uuid NOT NULL" style="shape=partialRectangle;overflow=hidden;connectable=0;fillColor=none;top=0;left=0;bottom=0;right=0;align=left;spacingLeft=6;" parent="B6y-D5gSoSHr-RNbPVT_-61" vertex="1">
          <mxGeometry x="30" width="190" height="30" as="geometry" />
        </mxCell>
        <mxCell id="C-vyLk0tnHw3VtMMgP7b-23" value="Users" style="shape=table;startSize=30;container=1;collapsible=1;childLayout=tableLayout;fixedRows=1;rowLines=0;fontStyle=1;align=center;resizeLast=1;" parent="1" vertex="1">
          <mxGeometry x="20" y="100" width="260" height="190.0000000000001" as="geometry" />
        </mxCell>
        <mxCell id="C-vyLk0tnHw3VtMMgP7b-24" value="" style="shape=partialRectangle;collapsible=0;dropTarget=0;pointerEvents=0;fillColor=none;points=[[0,0.5],[1,0.5]];portConstraint=eastwest;top=0;left=0;right=0;bottom=1;" parent="C-vyLk0tnHw3VtMMgP7b-23" vertex="1">
          <mxGeometry y="30" width="260" height="30" as="geometry" />
        </mxCell>
        <mxCell id="C-vyLk0tnHw3VtMMgP7b-25" value="PK" style="shape=partialRectangle;overflow=hidden;connectable=0;fillColor=none;top=0;left=0;bottom=0;right=0;fontStyle=1;" parent="C-vyLk0tnHw3VtMMgP7b-24" vertex="1">
          <mxGeometry width="30.000000000000227" height="30" as="geometry" />
        </mxCell>
        <mxCell id="C-vyLk0tnHw3VtMMgP7b-26" value="user_id uuid NOT NULL" style="shape=partialRectangle;overflow=hidden;connectable=0;fillColor=none;top=0;left=0;bottom=0;right=0;align=left;spacingLeft=6;fontStyle=5;" parent="C-vyLk0tnHw3VtMMgP7b-24" vertex="1">
          <mxGeometry x="30.000000000000227" width="229.99999999999977" height="30" as="geometry" />
        </mxCell>
        <mxCell id="C-vyLk0tnHw3VtMMgP7b-27" value="" style="shape=partialRectangle;collapsible=0;dropTarget=0;pointerEvents=0;fillColor=none;points=[[0,0.5],[1,0.5]];portConstraint=eastwest;top=0;left=0;right=0;bottom=0;" parent="C-vyLk0tnHw3VtMMgP7b-23" vertex="1">
          <mxGeometry y="60" width="260" height="30" as="geometry" />
        </mxCell>
        <mxCell id="C-vyLk0tnHw3VtMMgP7b-28" value="" style="shape=partialRectangle;overflow=hidden;connectable=0;fillColor=none;top=0;left=0;bottom=0;right=0;" parent="C-vyLk0tnHw3VtMMgP7b-27" vertex="1">
          <mxGeometry width="30.000000000000227" height="30" as="geometry" />
        </mxCell>
        <mxCell id="C-vyLk0tnHw3VtMMgP7b-29" value="first_name VARCHAR NOT NULL" style="shape=partialRectangle;overflow=hidden;connectable=0;fillColor=none;top=0;left=0;bottom=0;right=0;align=left;spacingLeft=6;" parent="C-vyLk0tnHw3VtMMgP7b-27" vertex="1">
          <mxGeometry x="30.000000000000227" width="229.99999999999977" height="30" as="geometry" />
        </mxCell>
        <mxCell id="PhbG-IJdiTOJx_OGz-Nv-7" value="" style="fontSize=12;html=1;endArrow=ERmany;exitX=0;exitY=0.5;exitDx=0;exitDy=0;endFill=0;" parent="1" source="B6y-D5gSoSHr-RNbPVT_-44" edge="1">
          <mxGeometry width="100" height="100" relative="1" as="geometry">
            <mxPoint x="1070" y="190" as="sourcePoint" />
            <mxPoint x="900" y="150" as="targetPoint" />
          </mxGeometry>
        </mxCell>
        <mxCell id="PhbG-IJdiTOJx_OGz-Nv-9" value="" style="edgeStyle=orthogonalEdgeStyle;fontSize=12;html=1;endArrow=ERmany;entryX=1;entryY=0.5;entryDx=0;entryDy=0;" parent="1" source="B6y-D5gSoSHr-RNbPVT_-44" target="B6y-D5gSoSHr-RNbPVT_-54" edge="1">
          <mxGeometry width="100" height="100" relative="1" as="geometry">
            <mxPoint x="1390" y="150" as="sourcePoint" />
            <mxPoint x="1330" y="360" as="targetPoint" />
          </mxGeometry>
        </mxCell>
        <mxCell id="PhbG-IJdiTOJx_OGz-Nv-14" value="column_name VARCHAR NOT NULL" style="shape=partialRectangle;overflow=hidden;connectable=0;fillColor=none;top=0;left=0;bottom=0;right=0;align=left;spacingLeft=6;" parent="1" vertex="1">
          <mxGeometry x="1140.0000000000002" y="570" width="209.99999999999977" height="30" as="geometry" />
        </mxCell>
        <mxCell id="PhbG-IJdiTOJx_OGz-Nv-15" value="next_column uuid " style="shape=partialRectangle;overflow=hidden;connectable=0;fillColor=none;top=0;left=0;bottom=0;right=0;align=left;spacingLeft=6;" parent="1" vertex="1">
          <mxGeometry x="1140.0000000000002" y="590" width="209.99999999999977" height="30" as="geometry" />
        </mxCell>
        <mxCell id="B6y-D5gSoSHr-RNbPVT_-151" value="Comments" style="shape=table;startSize=30;container=1;collapsible=1;childLayout=tableLayout;fixedRows=1;rowLines=0;fontStyle=1;align=center;resizeLast=1;" parent="1" vertex="1">
          <mxGeometry x="370" y="400" width="230" height="240" as="geometry" />
        </mxCell>
        <mxCell id="B6y-D5gSoSHr-RNbPVT_-152" value="" style="shape=partialRectangle;collapsible=0;dropTarget=0;pointerEvents=0;fillColor=none;points=[[0,0.5],[1,0.5]];portConstraint=eastwest;top=0;left=0;right=0;bottom=1;" parent="B6y-D5gSoSHr-RNbPVT_-151" vertex="1">
          <mxGeometry y="30" width="230" height="30" as="geometry" />
        </mxCell>
        <mxCell id="B6y-D5gSoSHr-RNbPVT_-153" value="PK" style="shape=partialRectangle;overflow=hidden;connectable=0;fillColor=none;top=0;left=0;bottom=0;right=0;fontStyle=1;" parent="B6y-D5gSoSHr-RNbPVT_-152" vertex="1">
          <mxGeometry width="30.000000000000227" height="30" as="geometry" />
        </mxCell>
        <mxCell id="B6y-D5gSoSHr-RNbPVT_-154" value="comment_id uuid NOT NULL" style="shape=partialRectangle;overflow=hidden;connectable=0;fillColor=none;top=0;left=0;bottom=0;right=0;align=left;spacingLeft=6;fontStyle=5;" parent="B6y-D5gSoSHr-RNbPVT_-152" vertex="1">
          <mxGeometry x="30.000000000000227" width="199.99999999999977" height="30" as="geometry" />
        </mxCell>
        <mxCell id="B6y-D5gSoSHr-RNbPVT_-155" value="" style="shape=partialRectangle;collapsible=0;dropTarget=0;pointerEvents=0;fillColor=none;points=[[0,0.5],[1,0.5]];portConstraint=eastwest;top=0;left=0;right=0;bottom=0;" parent="B6y-D5gSoSHr-RNbPVT_-151" vertex="1">
          <mxGeometry y="60" width="230" height="30" as="geometry" />
        </mxCell>
        <mxCell id="B6y-D5gSoSHr-RNbPVT_-156" value="FK" style="shape=partialRectangle;overflow=hidden;connectable=0;fillColor=none;top=0;left=0;bottom=0;right=0;" parent="B6y-D5gSoSHr-RNbPVT_-155" vertex="1">
          <mxGeometry width="30.000000000000227" height="30" as="geometry" />
        </mxCell>
        <mxCell id="B6y-D5gSoSHr-RNbPVT_-157" value="ticket uuid NOT NULL" style="shape=partialRectangle;overflow=hidden;connectable=0;fillColor=none;top=0;left=0;bottom=0;right=0;align=left;spacingLeft=6;" parent="B6y-D5gSoSHr-RNbPVT_-155" vertex="1">
          <mxGeometry x="30.000000000000227" width="199.99999999999977" height="30" as="geometry" />
        </mxCell>
        <mxCell id="PhbG-IJdiTOJx_OGz-Nv-21" value="" style="edgeStyle=orthogonalEdgeStyle;fontSize=12;html=1;endArrow=none;startArrow=ERmany;startFill=0;endFill=0;entryX=0;entryY=0.5;entryDx=0;entryDy=0;exitX=1;exitY=0.5;exitDx=0;exitDy=0;" parent="1" source="B6y-D5gSoSHr-RNbPVT_-155" target="B6y-D5gSoSHr-RNbPVT_-82" edge="1">
          <mxGeometry width="100" height="100" relative="1" as="geometry">
            <mxPoint x="610" y="430" as="sourcePoint" />
            <mxPoint x="710" y="330" as="targetPoint" />
          </mxGeometry>
        </mxCell>
        <mxCell id="PhbG-IJdiTOJx_OGz-Nv-22" value="" style="edgeStyle=orthogonalEdgeStyle;fontSize=12;html=1;endArrow=ERmany;exitX=1;exitY=0.5;exitDx=0;exitDy=0;entryX=0;entryY=0.5;entryDx=0;entryDy=0;" parent="1" source="C-vyLk0tnHw3VtMMgP7b-24" target="B6y-D5gSoSHr-RNbPVT_-125" edge="1">
          <mxGeometry width="100" height="100" relative="1" as="geometry">
            <mxPoint x="290" y="155" as="sourcePoint" />
            <mxPoint x="330" y="780" as="targetPoint" />
            <Array as="points">
              <mxPoint x="310" y="145" />
              <mxPoint x="310" y="865" />
            </Array>
          </mxGeometry>
        </mxCell>
        <mxCell id="PhbG-IJdiTOJx_OGz-Nv-23" value="" style="edgeStyle=orthogonalEdgeStyle;fontSize=12;html=1;endArrow=ERmany;exitX=1;exitY=0.5;exitDx=0;exitDy=0;" parent="1" source="C-vyLk0tnHw3VtMMgP7b-24" edge="1">
          <mxGeometry width="100" height="100" relative="1" as="geometry">
            <mxPoint x="330" y="150" as="sourcePoint" />
            <mxPoint x="370" y="500" as="targetPoint" />
            <Array as="points">
              <mxPoint x="330" y="145" />
              <mxPoint x="330" y="500" />
            </Array>
          </mxGeometry>
        </mxCell>
        <mxCell id="PhbG-IJdiTOJx_OGz-Nv-24" value="" style="edgeStyle=orthogonalEdgeStyle;fontSize=12;html=1;endArrow=ERmany;exitX=0;exitY=0.5;exitDx=0;exitDy=0;" parent="1" source="B6y-D5gSoSHr-RNbPVT_-82" edge="1">
          <mxGeometry width="100" height="100" relative="1" as="geometry">
            <mxPoint x="690" y="380" as="sourcePoint" />
            <mxPoint x="710" y="910" as="targetPoint" />
            <Array as="points">
              <mxPoint x="670" y="525" />
              <mxPoint x="670" y="910" />
            </Array>
          </mxGeometry>
        </mxCell>
        <mxCell id="PhbG-IJdiTOJx_OGz-Nv-25" value="" style="edgeStyle=orthogonalEdgeStyle;fontSize=12;html=1;endArrow=none;startArrow=ERmany;startFill=0;endFill=0;entryX=0;entryY=0.5;entryDx=0;entryDy=0;exitX=1;exitY=0.5;exitDx=0;exitDy=0;" parent="1" source="B6y-D5gSoSHr-RNbPVT_-121" target="B6y-D5gSoSHr-RNbPVT_-51" edge="1">
          <mxGeometry width="100" height="100" relative="1" as="geometry">
            <mxPoint x="930" y="905" as="sourcePoint" />
            <mxPoint x="1030" y="805" as="targetPoint" />
            <Array as="points">
              <mxPoint x="1050" y="930" />
              <mxPoint x="1050" y="535" />
            </Array>
          </mxGeometry>
        </mxCell>
        <mxCell id="B6y-D5gSoSHr-RNbPVT_-81" value="Tickets" style="shape=table;startSize=30;container=1;collapsible=1;childLayout=tableLayout;fixedRows=1;rowLines=0;fontStyle=1;align=center;resizeLast=1;" parent="1" vertex="1">
          <mxGeometry x="740" y="480" width="210" height="240" as="geometry" />
        </mxCell>
        <mxCell id="B6y-D5gSoSHr-RNbPVT_-82" value="" style="shape=partialRectangle;collapsible=0;dropTarget=0;pointerEvents=0;fillColor=none;points=[[0,0.5],[1,0.5]];portConstraint=eastwest;top=0;left=0;right=0;bottom=1;" parent="B6y-D5gSoSHr-RNbPVT_-81" vertex="1">
          <mxGeometry y="30" width="210" height="30" as="geometry" />
        </mxCell>
        <mxCell id="B6y-D5gSoSHr-RNbPVT_-83" value="PK" style="shape=partialRectangle;overflow=hidden;connectable=0;fillColor=none;top=0;left=0;bottom=0;right=0;fontStyle=1;" parent="B6y-D5gSoSHr-RNbPVT_-82" vertex="1">
          <mxGeometry width="30.000000000000227" height="30" as="geometry" />
        </mxCell>
        <mxCell id="B6y-D5gSoSHr-RNbPVT_-84" value="ticket_id uuid NOT NULL" style="shape=partialRectangle;overflow=hidden;connectable=0;fillColor=none;top=0;left=0;bottom=0;right=0;align=left;spacingLeft=6;fontStyle=5;" parent="B6y-D5gSoSHr-RNbPVT_-82" vertex="1">
          <mxGeometry x="30.000000000000227" width="179.99999999999977" height="30" as="geometry" />
        </mxCell>
        <mxCell id="B6y-D5gSoSHr-RNbPVT_-85" value="" style="shape=partialRectangle;collapsible=0;dropTarget=0;pointerEvents=0;fillColor=none;points=[[0,0.5],[1,0.5]];portConstraint=eastwest;top=0;left=0;right=0;bottom=0;" parent="B6y-D5gSoSHr-RNbPVT_-81" vertex="1">
          <mxGeometry y="60" width="210" height="30" as="geometry" />
        </mxCell>
        <mxCell id="B6y-D5gSoSHr-RNbPVT_-86" value="FK" style="shape=partialRectangle;overflow=hidden;connectable=0;fillColor=none;top=0;left=0;bottom=0;right=0;" parent="B6y-D5gSoSHr-RNbPVT_-85" vertex="1">
          <mxGeometry width="30.000000000000227" height="30" as="geometry" />
        </mxCell>
        <mxCell id="B6y-D5gSoSHr-RNbPVT_-87" value="column uuid NOT NULL" style="shape=partialRectangle;overflow=hidden;connectable=0;fillColor=none;top=0;left=0;bottom=0;right=0;align=left;spacingLeft=6;" parent="B6y-D5gSoSHr-RNbPVT_-85" vertex="1">
          <mxGeometry x="30.000000000000227" width="179.99999999999977" height="30" as="geometry" />
        </mxCell>
        <mxCell id="B6y-D5gSoSHr-RNbPVT_-50" value="Columns" style="shape=table;startSize=30;container=1;collapsible=1;childLayout=tableLayout;fixedRows=1;rowLines=0;fontStyle=1;align=center;resizeLast=1;" parent="1" vertex="1">
          <mxGeometry x="1110" y="490" width="240" height="140" as="geometry" />
        </mxCell>
        <mxCell id="B6y-D5gSoSHr-RNbPVT_-51" value="" style="shape=partialRectangle;collapsible=0;dropTarget=0;pointerEvents=0;fillColor=none;points=[[0,0.5],[1,0.5]];portConstraint=eastwest;top=0;left=0;right=0;bottom=1;" parent="B6y-D5gSoSHr-RNbPVT_-50" vertex="1">
          <mxGeometry y="30" width="240" height="30" as="geometry" />
        </mxCell>
        <mxCell id="B6y-D5gSoSHr-RNbPVT_-52" value="PK" style="shape=partialRectangle;overflow=hidden;connectable=0;fillColor=none;top=0;left=0;bottom=0;right=0;fontStyle=1;" parent="B6y-D5gSoSHr-RNbPVT_-51" vertex="1">
          <mxGeometry width="30.000000000000227" height="30" as="geometry" />
        </mxCell>
        <mxCell id="B6y-D5gSoSHr-RNbPVT_-53" value="column_id uuid NOT NULL" style="shape=partialRectangle;overflow=hidden;connectable=0;fillColor=none;top=0;left=0;bottom=0;right=0;align=left;spacingLeft=6;fontStyle=5;" parent="B6y-D5gSoSHr-RNbPVT_-51" vertex="1">
          <mxGeometry x="30.000000000000227" width="209.99999999999977" height="30" as="geometry" />
        </mxCell>
        <mxCell id="B6y-D5gSoSHr-RNbPVT_-54" value="" style="shape=partialRectangle;collapsible=0;dropTarget=0;pointerEvents=0;fillColor=none;points=[[0,0.5],[1,0.5]];portConstraint=eastwest;top=0;left=0;right=0;bottom=0;" parent="B6y-D5gSoSHr-RNbPVT_-50" vertex="1">
          <mxGeometry y="60" width="240" height="30" as="geometry" />
        </mxCell>
        <mxCell id="B6y-D5gSoSHr-RNbPVT_-55" value="FK" style="shape=partialRectangle;overflow=hidden;connectable=0;fillColor=none;top=0;left=0;bottom=0;right=0;" parent="B6y-D5gSoSHr-RNbPVT_-54" vertex="1">
          <mxGeometry width="30.000000000000227" height="30" as="geometry" />
        </mxCell>
        <mxCell id="B6y-D5gSoSHr-RNbPVT_-56" value="project uuid NOT NULL" style="shape=partialRectangle;overflow=hidden;connectable=0;fillColor=none;top=0;left=0;bottom=0;right=0;align=left;spacingLeft=6;" parent="B6y-D5gSoSHr-RNbPVT_-54" vertex="1">
          <mxGeometry x="30.000000000000227" width="209.99999999999977" height="30" as="geometry" />
        </mxCell>
        <mxCell id="B6y-D5gSoSHr-RNbPVT_-121" value="Activities" style="shape=table;startSize=30;container=1;collapsible=1;childLayout=tableLayout;fixedRows=1;rowLines=0;fontStyle=1;align=center;resizeLast=1;" parent="1" vertex="1">
          <mxGeometry x="710" y="790" width="290" height="280" as="geometry" />
        </mxCell>
        <mxCell id="B6y-D5gSoSHr-RNbPVT_-122" value="" style="shape=partialRectangle;collapsible=0;dropTarget=0;pointerEvents=0;fillColor=none;points=[[0,0.5],[1,0.5]];portConstraint=eastwest;top=0;left=0;right=0;bottom=1;" parent="B6y-D5gSoSHr-RNbPVT_-121" vertex="1">
          <mxGeometry y="30" width="290" height="30" as="geometry" />
        </mxCell>
        <mxCell id="B6y-D5gSoSHr-RNbPVT_-123" value="PK" style="shape=partialRectangle;overflow=hidden;connectable=0;fillColor=none;top=0;left=0;bottom=0;right=0;fontStyle=1;" parent="B6y-D5gSoSHr-RNbPVT_-122" vertex="1">
          <mxGeometry width="30.000000000000227" height="30" as="geometry" />
        </mxCell>
        <mxCell id="B6y-D5gSoSHr-RNbPVT_-124" value="activity_id uuid NOT NULL" style="shape=partialRectangle;overflow=hidden;connectable=0;fillColor=none;top=0;left=0;bottom=0;right=0;align=left;spacingLeft=6;fontStyle=5;" parent="B6y-D5gSoSHr-RNbPVT_-122" vertex="1">
          <mxGeometry x="30.000000000000227" width="259.9999999999998" height="30" as="geometry" />
        </mxCell>
        <mxCell id="B6y-D5gSoSHr-RNbPVT_-125" value="" style="shape=partialRectangle;collapsible=0;dropTarget=0;pointerEvents=0;fillColor=none;points=[[0,0.5],[1,0.5]];portConstraint=eastwest;top=0;left=0;right=0;bottom=0;" parent="B6y-D5gSoSHr-RNbPVT_-121" vertex="1">
          <mxGeometry y="60" width="290" height="30" as="geometry" />
        </mxCell>
        <mxCell id="B6y-D5gSoSHr-RNbPVT_-126" value="FK" style="shape=partialRectangle;overflow=hidden;connectable=0;fillColor=none;top=0;left=0;bottom=0;right=0;" parent="B6y-D5gSoSHr-RNbPVT_-125" vertex="1">
          <mxGeometry width="30.000000000000227" height="30" as="geometry" />
        </mxCell>
        <mxCell id="B6y-D5gSoSHr-RNbPVT_-127" value="user uuid NOT NULL" style="shape=partialRectangle;overflow=hidden;connectable=0;fillColor=none;top=0;left=0;bottom=0;right=0;align=left;spacingLeft=6;" parent="B6y-D5gSoSHr-RNbPVT_-125" vertex="1">
          <mxGeometry x="30.000000000000227" width="259.9999999999998" height="30" as="geometry" />
        </mxCell>
        <mxCell id="PhbG-IJdiTOJx_OGz-Nv-29" value="" style="edgeStyle=orthogonalEdgeStyle;fontSize=12;html=1;endArrow=ERmany;startArrow=none;startFill=0;endFill=0;exitX=1;exitY=0.5;exitDx=0;exitDy=0;" parent="1" edge="1">
          <mxGeometry width="100" height="100" relative="1" as="geometry">
            <mxPoint x="600" y="450" as="sourcePoint" />
            <mxPoint x="710" y="970" as="targetPoint" />
            <Array as="points">
              <mxPoint x="640" y="450" />
              <mxPoint x="640" y="970" />
            </Array>
          </mxGeometry>
        </mxCell>
        <mxCell id="PhbG-IJdiTOJx_OGz-Nv-30" value="" style="edgeStyle=orthogonalEdgeStyle;fontSize=12;html=1;endArrow=none;entryX=0;entryY=0.5;entryDx=0;entryDy=0;startArrow=ERmany;startFill=0;endFill=0;" parent="1" target="B6y-D5gSoSHr-RNbPVT_-129" edge="1">
          <mxGeometry width="100" height="100" relative="1" as="geometry">
            <mxPoint x="1000" y="950" as="sourcePoint" />
            <mxPoint x="1120" y="550" as="targetPoint" />
            <Array as="points">
              <mxPoint x="1070" y="950" />
              <mxPoint x="1070" y="330" />
            </Array>
          </mxGeometry>
        </mxCell>
        <mxCell id="PhbG-IJdiTOJx_OGz-Nv-31" value="" style="edgeStyle=orthogonalEdgeStyle;fontSize=12;html=1;endArrow=ERmany;exitX=0;exitY=0.5;exitDx=0;exitDy=0;" parent="1" source="B6y-D5gSoSHr-RNbPVT_-44" edge="1">
          <mxGeometry width="100" height="100" relative="1" as="geometry">
            <mxPoint x="1410" y="155" as="sourcePoint" />
            <mxPoint x="1000" y="890" as="targetPoint" />
            <Array as="points">
              <mxPoint x="1390" y="145" />
              <mxPoint x="1390" y="800" />
              <mxPoint x="1110" y="800" />
              <mxPoint x="1110" y="890" />
            </Array>
          </mxGeometry>
        </mxCell>
        <mxCell id="PhbG-IJdiTOJx_OGz-Nv-32" value="" style="edgeStyle=orthogonalEdgeStyle;fontSize=12;html=1;endArrow=none;startArrow=ERmany;startFill=0;endFill=0;entryX=0;entryY=0.5;entryDx=0;entryDy=0;exitX=0;exitY=0.5;exitDx=0;exitDy=0;" parent="1" source="B6y-D5gSoSHr-RNbPVT_-116" target="B6y-D5gSoSHr-RNbPVT_-82" edge="1">
          <mxGeometry width="100" height="100" relative="1" as="geometry">
            <mxPoint x="620" y="390" as="sourcePoint" />
            <mxPoint x="760" y="440" as="targetPoint" />
            <Array as="points">
              <mxPoint x="700" y="360" />
              <mxPoint x="700" y="525" />
            </Array>
          </mxGeometry>
        </mxCell>
        <mxCell id="B6y-D5gSoSHr-RNbPVT_-112" value="Ticket-Label" style="shape=table;startSize=30;container=1;collapsible=1;childLayout=tableLayout;fixedRows=1;rowLines=0;fontStyle=1;align=center;resizeLast=1;" parent="1" vertex="1">
          <mxGeometry x="740" y="285" width="210" height="115" as="geometry" />
        </mxCell>
        <mxCell id="B6y-D5gSoSHr-RNbPVT_-113" value="" style="shape=partialRectangle;collapsible=0;dropTarget=0;pointerEvents=0;fillColor=none;points=[[0,0.5],[1,0.5]];portConstraint=eastwest;top=0;left=0;right=0;bottom=1;" parent="B6y-D5gSoSHr-RNbPVT_-112" vertex="1">
          <mxGeometry y="30" width="210" height="30" as="geometry" />
        </mxCell>
        <mxCell id="B6y-D5gSoSHr-RNbPVT_-114" value="PK" style="shape=partialRectangle;overflow=hidden;connectable=0;fillColor=none;top=0;left=0;bottom=0;right=0;fontStyle=1;" parent="B6y-D5gSoSHr-RNbPVT_-113" vertex="1">
          <mxGeometry width="30.000000000000227" height="30" as="geometry" />
        </mxCell>
        <mxCell id="B6y-D5gSoSHr-RNbPVT_-115" value="ticket_label_id uuid NOT NULL" style="shape=partialRectangle;overflow=hidden;connectable=0;fillColor=none;top=0;left=0;bottom=0;right=0;align=left;spacingLeft=6;fontStyle=5;" parent="B6y-D5gSoSHr-RNbPVT_-113" vertex="1">
          <mxGeometry x="30.000000000000227" width="179.99999999999977" height="30" as="geometry" />
        </mxCell>
        <mxCell id="B6y-D5gSoSHr-RNbPVT_-116" value="" style="shape=partialRectangle;collapsible=0;dropTarget=0;pointerEvents=0;fillColor=none;points=[[0,0.5],[1,0.5]];portConstraint=eastwest;top=0;left=0;right=0;bottom=0;" parent="B6y-D5gSoSHr-RNbPVT_-112" vertex="1">
          <mxGeometry y="60" width="210" height="30" as="geometry" />
        </mxCell>
        <mxCell id="B6y-D5gSoSHr-RNbPVT_-117" value="FK" style="shape=partialRectangle;overflow=hidden;connectable=0;fillColor=none;top=0;left=0;bottom=0;right=0;" parent="B6y-D5gSoSHr-RNbPVT_-116" vertex="1">
          <mxGeometry width="30.000000000000227" height="30" as="geometry" />
        </mxCell>
        <mxCell id="B6y-D5gSoSHr-RNbPVT_-118" value="ticket uuid NOT NULL" style="shape=partialRectangle;overflow=hidden;connectable=0;fillColor=none;top=0;left=0;bottom=0;right=0;align=left;spacingLeft=6;" parent="B6y-D5gSoSHr-RNbPVT_-116" vertex="1">
          <mxGeometry x="30.000000000000227" width="179.99999999999977" height="30" as="geometry" />
        </mxCell>
        <mxCell id="B6y-D5gSoSHr-RNbPVT_-128" value="Labels" style="shape=table;startSize=30;container=1;collapsible=1;childLayout=tableLayout;fixedRows=1;rowLines=0;fontStyle=1;align=center;resizeLast=1;" parent="1" vertex="1">
          <mxGeometry x="1100" y="285" width="250" height="135" as="geometry" />
        </mxCell>
        <mxCell id="B6y-D5gSoSHr-RNbPVT_-129" value="" style="shape=partialRectangle;collapsible=0;dropTarget=0;pointerEvents=0;fillColor=none;points=[[0,0.5],[1,0.5]];portConstraint=eastwest;top=0;left=0;right=0;bottom=1;" parent="B6y-D5gSoSHr-RNbPVT_-128" vertex="1">
          <mxGeometry y="30" width="250" height="30" as="geometry" />
        </mxCell>
        <mxCell id="B6y-D5gSoSHr-RNbPVT_-130" value="PK" style="shape=partialRectangle;overflow=hidden;connectable=0;fillColor=none;top=0;left=0;bottom=0;right=0;fontStyle=1;" parent="B6y-D5gSoSHr-RNbPVT_-129" vertex="1">
          <mxGeometry width="30.000000000000227" height="30" as="geometry" />
        </mxCell>
        <mxCell id="B6y-D5gSoSHr-RNbPVT_-131" value="label_id uuid NOT NULL" style="shape=partialRectangle;overflow=hidden;connectable=0;fillColor=none;top=0;left=0;bottom=0;right=0;align=left;spacingLeft=6;fontStyle=5;" parent="B6y-D5gSoSHr-RNbPVT_-129" vertex="1">
          <mxGeometry x="30.000000000000227" width="219.99999999999977" height="30" as="geometry" />
        </mxCell>
        <mxCell id="B6y-D5gSoSHr-RNbPVT_-132" value="" style="shape=partialRectangle;collapsible=0;dropTarget=0;pointerEvents=0;fillColor=none;points=[[0,0.5],[1,0.5]];portConstraint=eastwest;top=0;left=0;right=0;bottom=0;" parent="B6y-D5gSoSHr-RNbPVT_-128" vertex="1">
          <mxGeometry y="60" width="250" height="30" as="geometry" />
        </mxCell>
        <mxCell id="B6y-D5gSoSHr-RNbPVT_-133" value="" style="shape=partialRectangle;overflow=hidden;connectable=0;fillColor=none;top=0;left=0;bottom=0;right=0;" parent="B6y-D5gSoSHr-RNbPVT_-132" vertex="1">
          <mxGeometry width="30.000000000000227" height="30" as="geometry" />
        </mxCell>
        <mxCell id="B6y-D5gSoSHr-RNbPVT_-134" value="label_name VARCHAR NOT NULL" style="shape=partialRectangle;overflow=hidden;connectable=0;fillColor=none;top=0;left=0;bottom=0;right=0;align=left;spacingLeft=6;" parent="B6y-D5gSoSHr-RNbPVT_-132" vertex="1">
          <mxGeometry x="30.000000000000227" width="219.99999999999977" height="30" as="geometry" />
        </mxCell>
        <mxCell id="B6y-D5gSoSHr-RNbPVT_-208" value="Files" style="shape=table;startSize=30;container=1;collapsible=1;childLayout=tableLayout;fixedRows=1;rowLines=0;fontStyle=1;align=center;resizeLast=1;" parent="1" vertex="1">
          <mxGeometry x="1360" y="820" width="290" height="210" as="geometry" />
        </mxCell>
        <mxCell id="B6y-D5gSoSHr-RNbPVT_-209" value="" style="shape=partialRectangle;collapsible=0;dropTarget=0;pointerEvents=0;fillColor=none;points=[[0,0.5],[1,0.5]];portConstraint=eastwest;top=0;left=0;right=0;bottom=1;" parent="B6y-D5gSoSHr-RNbPVT_-208" vertex="1">
          <mxGeometry y="30" width="290" height="30" as="geometry" />
        </mxCell>
        <mxCell id="B6y-D5gSoSHr-RNbPVT_-210" value="PK" style="shape=partialRectangle;overflow=hidden;connectable=0;fillColor=none;top=0;left=0;bottom=0;right=0;fontStyle=1;" parent="B6y-D5gSoSHr-RNbPVT_-209" vertex="1">
          <mxGeometry width="30.000000000000227" height="30" as="geometry" />
        </mxCell>
        <mxCell id="B6y-D5gSoSHr-RNbPVT_-211" value="file_id uuid NOT NULL" style="shape=partialRectangle;overflow=hidden;connectable=0;fillColor=none;top=0;left=0;bottom=0;right=0;align=left;spacingLeft=6;fontStyle=5;" parent="B6y-D5gSoSHr-RNbPVT_-209" vertex="1">
          <mxGeometry x="30.000000000000227" width="259.9999999999998" height="30" as="geometry" />
        </mxCell>
      </root>
    </mxGraphModel>
  </diagram>
</mxfile>
